<svg xmlns="http://www.w3.org/2000/svg" viewBox="0 0 300 300">
  <title>KA — disque</title>
  <defs>
    <radialGradient id="d" cx="50%" cy="40%" r="66%">
      <stop offset="0" stop-color="#f2f4f7"/>
      <stop offset=".45" stop-color="#c9cdd3"/>
      <stop offset=".78" stop-color="#93989f"/>
      <stop offset="1" stop-color="#6f737b"/>
    </radialGradient>
    <radialGradient id="s" cx="50%" cy="50%" r="50%">
      <stop offset="0" stop-color="#ffffff" stop-opacity=".6"/>
      <stop offset="1" stop-color="#ffffff" stop-opacity="0"/>
    </radialGradient>
  </defs>
  <circle cx="150" cy="150" r="142" fill="url(#d)"/>
  <g fill="none">
    <circle cx="150" cy="150" r="12" stroke="#ffffff" stroke-opacity=".05"/>
    <circle cx="150" cy="150" r="18" stroke="#000000" stroke-opacity=".03"/>
    <circle cx="150" cy="150" r="24" stroke="#ffffff" stroke-opacity=".045"/>
    <circle cx="150" cy="150" r="30" stroke="#000000" stroke-opacity=".03"/>
    <circle cx="150" cy="150" r="36" stroke="#ffffff" stroke-opacity=".05"/>
    <circle cx="150" cy="150" r="42" stroke="#000000" stroke-opacity=".03"/>
    <circle cx="150" cy="150" r="48" stroke="#ffffff" stroke-opacity=".045"/>
    <circle cx="150" cy="150" r="54" stroke="#000000" stroke-opacity=".03"/>
    <circle cx="150" cy="150" r="60" stroke="#ffffff" stroke-opacity=".05"/>
    <circle cx="150" cy="150" r="66" stroke="#000000" stroke-opacity=".03"/>
    <circle cx="150" cy="150" r="72" stroke="#ffffff" stroke-opacity=".045"/>
    <circle cx="150" cy="150" r="78" stroke="#000000" stroke-opacity=".03"/>
    <circle cx="150" cy="150" r="84" stroke="#ffffff" stroke-opacity=".05"/>
    <circle cx="150" cy="150" r="90" stroke="#000000" stroke-opacity=".03"/>
    <circle cx="150" cy="150" r="96" stroke="#ffffff" stroke-opacity=".045"/>
    <circle cx="150" cy="150" r="102" stroke="#000000" stroke-opacity=".03"/>
    <circle cx="150" cy="150" r="108" stroke="#ffffff" stroke-opacity=".05"/>
    <circle cx="150" cy="150" r="114" stroke="#000000" stroke-opacity=".03"/>
    <circle cx="150" cy="150" r="120" stroke="#ffffff" stroke-opacity=".045"/>
    <circle cx="150" cy="150" r="126" stroke="#000000" stroke-opacity=".03"/>
    <circle cx="150" cy="150" r="132" stroke="#ffffff" stroke-opacity=".05"/>
    <circle cx="150" cy="150" r="138" stroke="#000000" stroke-opacity=".03"/>
    <circle cx="150" cy="150" r="140" stroke="#ffffff" stroke-opacity=".045"/>
  </g>
  <ellipse cx="120" cy="100" rx="110" ry="80" fill="url(#s)"/>
  <circle cx="150" cy="150" r="142" fill="none" stroke="#ffffff" stroke-opacity=".5" stroke-width="2.5"/>
  <circle cx="150" cy="150" r="144.5" fill="none" stroke="#000000" stroke-opacity=".3" stroke-width="1"/>
  <g transform="translate(150,150)" fill="none" stroke="#101c38" stroke-width="11" stroke-linecap="round" stroke-linejoin="round">
    <path d="M -44 2 L -44 40 Q -44 54 -30 54 L 30 54 Q 44 54 44 40 L 44 2"/>
    <path d="M -44 2 C -48 -14 -54 -24 -56 -44"/>
    <path d="M -44 2 C -40 -14 -36 -26 -35 -42"/>
    <path d="M 44 2 C 48 -14 54 -24 56 -44"/>
    <path d="M 44 2 C 40 -14 36 -26 35 -42"/>
  </g>
</svg>
